<svg xmlns="http://www.w3.org/2000/svg" xmlns:xlink="http://www.w3.org/1999/xlink" xmlns:svgjs="http://svgjs.dev/svgjs" width="1000" height="174"><svg viewBox="0 0 356 62" data-background-color="#ffffff" height="174" width="1000" xmlns="http://www.w3.org/2000/svg" xmlns:xlink="http://www.w3.org/1999/xlink" transform="translate(.17 -.365)"><svg height="61.74" width="356.121" transform="translate(-.06 .13)"><svg height="61.74" width="356.121"><svg height="61.74" width="356.121"><path d="M0 61.74V0h356.121v61.74z" fill="#e83d95" data-fill-palette-color="tertiary"/><path d="M3.283 58.457V3.283h349.554v55.174z" fill="#fff" data-fill-palette-color="quaternary"/><path d="M9.85 51.89V9.85h336.421v42.04z" fill="#e83d95" data-fill-palette-color="tertiary"/><svg height="22.341" width="316.721" transform="translate(19.7 19.7)"><svg height="22.341" width="316.721"><svg width="316.721" viewBox="1.3 -36.85 528.76 37.3" height="22.341" data-palette-color="#ffffff"><path d="M17.05-27.85L11.3-11.6h10.8l-5.05-16.25zM29.15.45q-1.5 0-2.4-.75-.9-.75-1.6-2.65l-1.75-5.1H10l-1.9 4.9Q6.75.45 4.4.45 3.35.45 2.5-.1q-.85-.55-1.2-1.35 1.2-.5 2.1-2.75l11.3-28.75q-.6-1.5-1.5-2.2 1.3-1.4 3-1.4t2.53.92q.82.93 1.62 3.13l9.8 28.05q.85 2.4 2.35 3.2-.95 1.7-3.35 1.7zm9.75-4.2v-28.7q0-1.75-1.4-2.35 1.3-1.75 3.3-1.75 2 0 3.25.85t2.5 2.8L62.7-7.05v-25.4q0-1.75-1.35-2.35 1.2-1.75 3.2-1.75 3.45 0 3.45 4.15v28.7q0 1.8 1.05 2.7-1.1 1.45-3.1 1.45T62.42-.78Q60.9-2 59.15-4.75l-15-23.65v24.7q0 1.85 1.35 2.4Q44.2.45 42.3.45q-3.4 0-3.4-4.2zm51.3-24.1L84.45-11.6h10.8L90.2-27.85zM102.3.45q-1.5 0-2.4-.75-.9-.75-1.6-2.65l-1.75-5.1h-13.4l-1.9 4.9Q79.9.45 77.55.45q-1.05 0-1.9-.55-.85-.55-1.2-1.35 1.2-.5 2.1-2.75l11.3-28.75q-.6-1.5-1.5-2.2 1.3-1.4 3-1.4t2.52.92q.83.93 1.63 3.13l9.8 28.05q.85 2.4 2.35 3.2-.95 1.7-3.35 1.7zm33.39-30q0 1.55-.87 2.45-.88.9-2.18.9-1.3 0-2.7-.7.3-.9.3-1.65 0-1.7-1.8-3.13-1.8-1.42-5.02-1.42-3.23 0-5.18 1.32-1.95 1.33-1.95 3.38t1.53 3.55q1.52 1.5 3.8 2.5 2.27 1 4.92 2.27 2.65 1.28 4.93 2.51 2.27 1.22 3.8 3.17 1.52 1.95 1.52 4.3 0 4.55-3.97 7.55-3.98 3-9.6 3-5.63 0-9.35-2.38-3.73-2.37-3.73-6.02 0-1.75 1.08-2.83 1.07-1.07 2.75-1.07 1.67 0 2.82 1.3-1.15 1-1.15 2.82 0 1.83 2.03 3.18 2.02 1.35 5.52 1.35 3.5 0 5.93-1.7 2.42-1.7 2.42-3.98 0-2.27-2.12-3.92-2.13-1.65-5.13-2.88-3-1.22-6.02-2.62-3.03-1.4-5.15-3.65-2.13-2.25-2.13-5.15 0-4.25 3.75-6.92 3.75-2.68 8.98-2.68 5.22 0 8.6 2.07 3.37 2.08 3.37 5.08zm9.8-6.6h18.85q3.4 0 3.4 2.7 0 1.2-.95 2.15-1.5-.75-4.05-.75h-6.05V-3.7q0 1.8 1.35 2.4-1.2 1.75-3.15 1.75-3.45 0-3.45-4.2v-28.3h-7.6q-3.35 0-3.35-2.7 0-1.2.9-2.1 1.45.7 4.1.7zm40.1 8.3l-5.75 16.25h10.8l-5.05-16.25zm12.1 28.3q-1.5 0-2.4-.75-.9-.75-1.6-2.65l-1.75-5.1h-13.4l-1.9 4.9q-1.35 3.6-3.7 3.6-1.05 0-1.9-.55-.85-.55-1.2-1.35 1.2-.5 2.1-2.75l11.3-28.75q-.6-1.5-1.5-2.2 1.3-1.4 3-1.4t2.52.92q.83.93 1.63 3.13l9.8 28.05q.85 2.4 2.35 3.2-.95 1.7-3.35 1.7zm33.4-30q0 1.55-.88 2.45-.87.9-2.17.9-1.3 0-2.7-.7.3-.9.3-1.65 0-1.7-1.8-3.13-1.8-1.42-5.03-1.42-3.22 0-5.17 1.32-1.95 1.33-1.95 3.38t1.52 3.55q1.53 1.5 3.8 2.5 2.28 1 4.93 2.27 2.65 1.28 4.92 2.51 2.28 1.22 3.8 3.17 1.53 1.95 1.53 4.3 0 4.55-3.98 7.55-3.97 3-9.6 3-5.62 0-9.35-2.38-3.72-2.37-3.72-6.02 0-1.75 1.07-2.83 1.08-1.07 2.75-1.07 1.68 0 2.83 1.3-1.15 1-1.15 2.82 0 1.83 2.02 3.18 2.03 1.35 5.53 1.35 3.5 0 5.92-1.7 2.43-1.7 2.43-3.98 0-2.27-2.13-3.92-2.12-1.65-5.12-2.88-3-1.22-6.03-2.62-3.02-1.4-5.15-3.65-2.12-2.25-2.12-5.15 0-4.25 3.75-6.92 3.75-2.68 8.97-2.68 5.23 0 8.6 2.07 3.38 2.08 3.38 5.08zm14.19-2.85v28.7q0 1.8 1.35 2.4-1.2 1.75-3.2 1.75-3.4 0-3.4-4.2v-28.7q0-1.75-1.35-2.35 1.15-1.75 3.15-1.75 3.45 0 3.45 4.15zm22.2 4.55l-5.75 16.25h10.8l-5.05-16.25zm12.1 28.3q-1.5 0-2.4-.75-.9-.75-1.6-2.65l-1.75-5.1h-13.4l-1.9 4.9q-1.35 3.6-3.7 3.6-1.05 0-1.9-.55-.85-.55-1.2-1.35 1.2-.5 2.1-2.75l11.3-28.75q-.6-1.5-1.5-2.2 1.3-1.4 3-1.4t2.53.92q.82.93 1.62 3.13l9.8 28.05q.85 2.4 2.35 3.2-.95 1.7-3.35 1.7zm32.25-4.7h9.55q3.05 0 4.8-2.05 1.5.75 1.5 2.52 0 1.78-1.4 2.78-1.4 1-4.35 1h-10.6q-4.2 0-6.18-1.73-1.97-1.72-1.97-5.57v-24.5q0-1.8-1.4-2.4 1.4-1.95 4.15-1.95h16.05q5.7 0 5.7 3.05 0 1.7-1.5 2.45-1.6-1.2-4.8-1.2h-12.95V-21h9.5q3.1 0 4.4.55 1.3.55 1.3 2.05 0 1.5-1.35 2.35-1.55-.7-4.8-.7h-9.05v9.05q0 1.85.8 2.65.8.8 2.6.8zm27.19-31.9h16.25q5.5 0 5.5 2.8 0 1.7-1.5 2.45-1.6-1.15-4.8-1.15h-12.95v11.3h9.5q3.1 0 4.4.52 1.3.53 1.3 1.88 0 1.35-1.35 2.2-1.4-.65-4.8-.65h-9.05v13.1q0 1.85 1.35 2.4-1.3 1.75-3.2 1.75-3.4 0-3.4-4.2V-31.8q0-1.8-1.4-2.4 1.4-1.95 4.15-1.95zm33.2 3.75v28.7q0 1.8 1.35 2.4-1.2 1.75-3.2 1.75-3.4 0-3.4-4.2v-28.7q0-1.75-1.35-2.35 1.15-1.75 3.15-1.75 3.45 0 3.45 4.15zm49.5 31.95q-1.35.85-2.85.85t-2.33-.9q-.82-.9-1.02-3l-1.75-26.75-10.6 28.3q-.55 1.6-2.2 1.6-1.65 0-2.2-1.6l-10.45-28.3-1.75 26.6q-.15 2.15-.85 3.12-.7.98-2.3.98-1.6 0-2.9-1.3 1-.85 1.15-3.05l2.1-28.2v-.55q0-1.65-.8-2.6 2.15-1.3 4.5-1.3t3.65 1.3q1.3 1.3 2.2 4.1l8.05 21.75 8.3-21.65q1-3.1 2.52-4.3 1.53-1.2 3.63-1.2 2.1 0 3.9.9-.8 1.1-.8 2.75v.55L420.87-4q.1 2.6.85 3.55zm16.15-6.5q3.1 3.8 7.9 3.8 4.8 0 7.4-4.3 2.2-3.55 2.2-8.85 0-1.1-.1-2.3-.45-6.75-3.55-10.58-3.1-3.82-7.93-3.82-4.82 0-7.42 4.3-2.2 3.6-2.2 8.9 0 8.3 3.7 12.85zm6.95-29.6q7.5 0 11.65 5t4.15 13.42q0 8.43-4.18 13.5Q452.27.45 444.79.45q-7.47 0-11.7-5.05-4.22-5.05-4.22-13.45 0-8.4 4.22-13.45 4.23-5.05 11.73-5.05zm46.34 5.4q.6-1.7.6-2.9t-.6-1.9q1.3-.7 2.75-.7t2.3.8q.85.8.85 2.1t-.55 2.6L485.46-3.5q-.95 2.35-1.77 3.15-.83.8-2.53.8-1.7 0-2.47-.8-.78-.8-1.63-3.15l-10.5-28.35q-.85-2.2-2.1-2.9 1.55-1.8 3.6-1.8 1.35 0 2.25.87.9.88 1.65 2.93l9.65 27.7 9.55-26.1zm23.45 3.3l-5.75 16.25h10.8l-5.05-16.25zm12.1 28.3q-1.5 0-2.4-.75-.9-.75-1.6-2.65l-1.75-5.1h-13.4l-1.9 4.9q-1.35 3.6-3.7 3.6-1.05 0-1.9-.55-.85-.55-1.2-1.35 1.2-.5 2.1-2.75l11.3-28.75q-.6-1.5-1.5-2.2 1.3-1.4 3-1.4t2.53.92q.82.93 1.62 3.13l9.8 28.05q.85 2.4 2.35 3.2-.95 1.7-3.35 1.7z" fill="#fff" class="undefined-text-0" data-fill-palette-color="quaternary"/></svg></svg></svg></svg></svg></svg></svg></svg>